# Blender 3.3.0
# www.blender.org
mtllib Sphere.mtl
o ç«‹æ–¹ä½“
o çƒ
v 0.000000 0.923880 0.382683
v 0.000000 1.000000 0.000000
v 0.000000 0.923880 -0.382683
v 0.000000 0.382683 -0.923880
v 0.146447 0.353553 0.923880
v 0.270598 0.653281 0.707107
v 0.353553 0.853553 0.382683
v 0.382683 0.923880 0.000000
v 0.353553 0.853553 -0.382683
v 0.270598 0.653281 -0.707107
v 0.146447 0.353553 -0.923880
v 0.270598 0.270598 0.923880
v 0.500000 0.500000 0.707107
v 0.653282 0.653281 0.382683
v 0.707107 0.707107 0.000000
v 0.653282 0.653281 -0.382683
v 0.500000 0.500000 -0.707107
v 0.270598 0.270598 -0.923880
v 0.353553 0.146447 0.923880
v 0.653281 0.270598 0.707107
v 0.853553 0.353553 0.382683
v 0.923880 0.382683 0.000000
v 0.853553 0.353553 -0.382683
v 0.653281 0.270598 -0.707107
v 0.353553 0.146447 -0.923880
v 0.382683 -0.000000 0.923880
v 0.707107 -0.000000 0.707107
v 0.923880 -0.000000 0.382683
v 1.000000 -0.000000 0.000000
v 0.923880 -0.000000 -0.382683
v 0.707107 -0.000000 -0.707107
v 0.382683 -0.000000 -0.923880
v 0.353553 -0.146447 0.923880
v 0.653281 -0.270598 0.707107
v 0.853553 -0.353554 0.382683
v 0.923879 -0.382684 0.000000
v 0.853553 -0.353554 -0.382683
v 0.653281 -0.270598 -0.707107
v 0.353553 -0.146447 -0.923880
v 0.270598 -0.270598 0.923880
v 0.500000 -0.500000 0.707107
v 0.653281 -0.653282 0.382683
v 0.707107 -0.707107 0.000000
v 0.653281 -0.653282 -0.382683
v 0.500000 -0.500000 -0.707107
v 0.270598 -0.270598 -0.923880
v 0.146447 -0.353553 0.923880
v 0.270598 -0.653281 0.707107
v 0.353553 -0.853553 0.382683
v 0.382683 -0.923880 0.000000
v 0.353553 -0.853553 -0.382683
v 0.270598 -0.653281 -0.707107
v 0.146447 -0.353553 -0.923880
v -0.000000 -0.382683 0.923880
v -0.000000 -0.707107 0.707107
v -0.000000 -0.923879 0.382683
v -0.000000 -1.000000 0.000000
v -0.000000 -0.923879 -0.382683
v -0.000000 -0.707107 -0.707107
v -0.000000 -0.382683 -0.923880
v 0.000000 0.000000 -1.000000
v 0.000000 0.000000 1.000000
v -0.146447 -0.353553 0.923880
v -0.270598 -0.653281 0.707107
v -0.353554 -0.853553 0.382683
v -0.382684 -0.923879 0.000000
v -0.353554 -0.853553 -0.382683
v -0.270598 -0.653281 -0.707107
v -0.146447 -0.353553 -0.923880
v -0.270598 -0.270598 0.923880
v -0.500000 -0.500000 0.707107
v -0.653282 -0.653281 0.382683
v -0.707107 -0.707106 0.000000
v -0.653282 -0.653281 -0.382683
v -0.500000 -0.500000 -0.707107
v -0.270598 -0.270598 -0.923880
v -0.353553 -0.146446 0.923880
v -0.653281 -0.270598 0.707107
v -0.853553 -0.353553 0.382683
v -0.923880 -0.382683 0.000000
v -0.853553 -0.353553 -0.382683
v -0.653281 -0.270598 -0.707107
v -0.353553 -0.146446 -0.923880
v -0.382683 0.000000 0.923880
v -0.707107 0.000000 0.707107
v -0.923879 0.000000 0.382683
v -1.000000 0.000001 0.000000
v -0.923879 0.000000 -0.382683
v -0.707107 0.000000 -0.707107
v -0.382683 0.000000 -0.923880
v -0.353553 0.146447 0.923880
v -0.653281 0.270598 0.707107
v -0.853553 0.353554 0.382683
v -0.923879 0.382684 0.000000
v -0.853553 0.353554 -0.382683
v -0.653281 0.270598 -0.707107
v -0.353553 0.146447 -0.923880
v -0.270598 0.270598 0.923880
v -0.500000 0.500000 0.707107
v -0.653281 0.653282 0.382683
v -0.707106 0.707107 0.000000
v -0.653281 0.653282 -0.382683
v -0.500000 0.500000 -0.707107
v -0.270598 0.270598 -0.923880
v -0.146446 0.353554 0.923880
v -0.270598 0.653281 0.707107
v -0.353553 0.853553 0.382683
v -0.382683 0.923880 0.000000
v -0.353553 0.853553 -0.382683
v -0.270598 0.653281 -0.707107
v -0.146446 0.353554 -0.923880
v 0.000000 0.382683 0.923880
v 0.000000 0.707107 0.707107
v 0.000000 0.707107 -0.707107
vn 0.1098 0.5522 0.8264
vn 0.1098 0.5522 -0.8264
vn 0.1915 0.9626 -0.1915
vn 0.1632 0.8203 0.5481
vn 0.0388 0.1949 0.9800
vn 0.0388 0.1949 -0.9800
vn 0.1632 0.8203 -0.5481
vn 0.1915 0.9626 0.1915
vn 0.5453 0.8161 -0.1915
vn 0.4647 0.6954 0.5481
vn 0.1104 0.1653 0.9800
vn 0.1104 0.1653 -0.9800
vn 0.4647 0.6954 -0.5481
vn 0.5453 0.8161 0.1915
vn 0.3128 0.4681 0.8264
vn 0.3128 0.4681 -0.8264
vn 0.1653 0.1104 -0.9800
vn 0.6954 0.4647 -0.5481
vn 0.8161 0.5453 0.1915
vn 0.4681 0.3128 0.8264
vn 0.4681 0.3128 -0.8264
vn 0.8161 0.5453 -0.1915
vn 0.6954 0.4647 0.5481
vn 0.1653 0.1104 0.9800
vn 0.9626 0.1915 0.1915
vn 0.5522 0.1098 0.8264
vn 0.5522 0.1098 -0.8264
vn 0.9626 0.1915 -0.1915
vn 0.8203 0.1632 0.5481
vn 0.1949 0.0388 0.9800
vn 0.1949 0.0388 -0.9800
vn 0.8203 0.1632 -0.5481
vn 0.5522 -0.1098 -0.8264
vn 0.9626 -0.1915 -0.1915
vn 0.8203 -0.1632 0.5481
vn 0.1949 -0.0388 0.9800
vn 0.1949 -0.0388 -0.9800
vn 0.8203 -0.1632 -0.5481
vn 0.9626 -0.1915 0.1915
vn 0.5522 -0.1098 0.8264
vn 0.6954 -0.4647 0.5481
vn 0.1653 -0.1104 0.9800
vn 0.1653 -0.1104 -0.9800
vn 0.6954 -0.4647 -0.5481
vn 0.8161 -0.5453 0.1915
vn 0.4681 -0.3128 0.8264
vn 0.4681 -0.3128 -0.8264
vn 0.8161 -0.5453 -0.1915
vn 0.1104 -0.1653 -0.9800
vn 0.4647 -0.6954 -0.5481
vn 0.5453 -0.8161 0.1915
vn 0.3128 -0.4681 0.8264
vn 0.3128 -0.4681 -0.8264
vn 0.5453 -0.8161 -0.1915
vn 0.4647 -0.6954 0.5481
vn 0.1104 -0.1653 0.9800
vn 0.1098 -0.5522 0.8264
vn 0.1098 -0.5522 -0.8264
vn 0.1915 -0.9626 -0.1915
vn 0.1632 -0.8203 0.5481
vn 0.0388 -0.1949 0.9800
vn 0.0388 -0.1949 -0.9800
vn 0.1632 -0.8203 -0.5481
vn 0.1915 -0.9626 0.1915
vn -0.1098 -0.5522 -0.8264
vn -0.1915 -0.9626 -0.1915
vn -0.1632 -0.8203 0.5481
vn -0.0388 -0.1949 0.9800
vn -0.0388 -0.1949 -0.9800
vn -0.1632 -0.8203 -0.5481
vn -0.1915 -0.9626 0.1915
vn -0.1098 -0.5522 0.8264
vn -0.1104 -0.1653 0.9800
vn -0.1104 -0.1653 -0.9800
vn -0.4647 -0.6954 -0.5481
vn -0.5453 -0.8161 0.1915
vn -0.3128 -0.4681 0.8264
vn -0.3128 -0.4681 -0.8264
vn -0.5453 -0.8161 -0.1915
vn -0.4647 -0.6954 0.5481
vn -0.6954 -0.4647 -0.5481
vn -0.8161 -0.5453 0.1915
vn -0.4681 -0.3128 0.8264
vn -0.4681 -0.3128 -0.8264
vn -0.8161 -0.5453 -0.1915
vn -0.6954 -0.4647 0.5481
vn -0.1653 -0.1104 0.9800
vn -0.1653 -0.1104 -0.9800
vn -0.5522 -0.1098 -0.8264
vn -0.9626 -0.1915 -0.1915
vn -0.8203 -0.1632 0.5481
vn -0.1949 -0.0388 0.9800
vn -0.1949 -0.0388 -0.9800
vn -0.8203 -0.1632 -0.5481
vn -0.9626 -0.1915 0.1915
vn -0.5522 -0.1098 0.8264
vn -0.9626 0.1915 -0.1915
vn -0.8203 0.1632 0.5481
vn -0.1949 0.0388 0.9800
vn -0.1949 0.0388 -0.9800
vn -0.8203 0.1632 -0.5481
vn -0.9626 0.1915 0.1915
vn -0.5522 0.1098 0.8264
vn -0.5522 0.1098 -0.8264
vn -0.1653 0.1104 -0.9800
vn -0.6954 0.4647 -0.5481
vn -0.8161 0.5453 0.1915
vn -0.4681 0.3128 0.8264
vn -0.4681 0.3128 -0.8264
vn -0.8161 0.5453 -0.1915
vn -0.6954 0.4647 0.5481
vn -0.1653 0.1104 0.9800
vn -0.5453 0.8161 0.1915
vn -0.3128 0.4681 0.8264
vn -0.3128 0.4681 -0.8264
vn -0.5453 0.8161 -0.1915
vn -0.4647 0.6954 0.5481
vn -0.1104 0.1653 0.9800
vn -0.1104 0.1653 -0.9800
vn -0.4647 0.6954 -0.5481
vn -0.1098 0.5522 -0.8264
vn -0.1915 0.9626 -0.1915
vn -0.1632 0.8203 0.5481
vn -0.0388 0.1949 0.9800
vn -0.0388 0.1949 -0.9800
vn -0.1632 0.8203 -0.5481
vn -0.1915 0.9626 0.1915
vn -0.1098 0.5522 0.8264
vt 0.750000 0.625000
vt 0.750000 0.500000
vt 0.750000 0.375000
vt 0.750000 0.125000
vt 0.687500 0.875000
vt 0.687500 0.750000
vt 0.687500 0.625000
vt 0.687500 0.500000
vt 0.687500 0.375000
vt 0.687500 0.250000
vt 0.687500 0.125000
vt 0.625000 0.875000
vt 0.625000 0.750000
vt 0.625000 0.625000
vt 0.625000 0.500000
vt 0.625000 0.375000
vt 0.625000 0.250000
vt 0.625000 0.125000
vt 0.562500 0.875000
vt 0.562500 0.750000
vt 0.562500 0.625000
vt 0.562500 0.500000
vt 0.562500 0.375000
vt 0.562500 0.250000
vt 0.562500 0.125000
vt 0.500000 0.875000
vt 0.500000 0.750000
vt 0.500000 0.625000
vt 0.500000 0.500000
vt 0.500000 0.375000
vt 0.500000 0.250000
vt 0.500000 0.125000
vt 0.437500 0.875000
vt 0.437500 0.750000
vt 0.437500 0.625000
vt 0.437500 0.500000
vt 0.437500 0.375000
vt 0.437500 0.250000
vt 0.437500 0.125000
vt 0.375000 0.875000
vt 0.375000 0.750000
vt 0.375000 0.625000
vt 0.375000 0.500000
vt 0.375000 0.375000
vt 0.375000 0.250000
vt 0.375000 0.125000
vt 0.312500 0.875000
vt 0.312500 0.750000
vt 0.312500 0.625000
vt 0.312500 0.500000
vt 0.312500 0.375000
vt 0.312500 0.250000
vt 0.312500 0.125000
vt 0.250000 0.875000
vt 0.250000 0.750000
vt 0.250000 0.625000
vt 0.250000 0.500000
vt 0.250000 0.375000
vt 0.250000 0.250000
vt 0.250000 0.125000
vt 0.718750 0.000000
vt 0.656250 0.000000
vt 0.593750 0.000000
vt 0.531250 0.000000
vt 0.468750 0.000000
vt 0.406250 0.000000
vt 0.343750 0.000000
vt 0.281250 0.000000
vt 0.218750 0.000000
vt 0.156250 0.000000
vt 0.093750 0.000000
vt 0.031250 0.000000
vt 0.968750 0.000000
vt 0.906250 0.000000
vt 0.843750 0.000000
vt 0.781250 0.000000
vt 0.718750 1.000000
vt 0.656250 1.000000
vt 0.593750 1.000000
vt 0.531250 1.000000
vt 0.468750 1.000000
vt 0.406250 1.000000
vt 0.343750 1.000000
vt 0.281250 1.000000
vt 0.218750 1.000000
vt 0.156250 1.000000
vt 0.093750 1.000000
vt 0.031250 1.000000
vt 0.968750 1.000000
vt 0.906250 1.000000
vt 0.843750 1.000000
vt 0.781250 1.000000
vt 0.187500 0.875000
vt 0.187500 0.750000
vt 0.187500 0.625000
vt 0.187500 0.500000
vt 0.187500 0.375000
vt 0.187500 0.250000
vt 0.187500 0.125000
vt 0.125000 0.875000
vt 0.125000 0.750000
vt 0.125000 0.625000
vt 0.125000 0.500000
vt 0.125000 0.375000
vt 0.125000 0.250000
vt 0.125000 0.125000
vt 0.062500 0.875000
vt 0.062500 0.750000
vt 0.062500 0.625000
vt 0.062500 0.500000
vt 0.062500 0.375000
vt 0.062500 0.250000
vt 0.062500 0.125000
vt 0.000000 0.875000
vt 1.000000 0.875000
vt 0.000000 0.750000
vt 1.000000 0.750000
vt 0.000000 0.625000
vt 1.000000 0.625000
vt 0.000000 0.500000
vt 1.000000 0.500000
vt 0.000000 0.375000
vt 1.000000 0.375000
vt 0.000000 0.250000
vt 1.000000 0.250000
vt 0.000000 0.125000
vt 1.000000 0.125000
vt 0.937500 0.875000
vt 0.937500 0.750000
vt 0.937500 0.625000
vt 0.937500 0.500000
vt 0.937500 0.375000
vt 0.937500 0.250000
vt 0.937500 0.125000
vt 0.875000 0.875000
vt 0.875000 0.750000
vt 0.875000 0.625000
vt 0.875000 0.500000
vt 0.875000 0.375000
vt 0.875000 0.250000
vt 0.875000 0.125000
vt 0.812500 0.875000
vt 0.812500 0.750000
vt 0.812500 0.625000
vt 0.812500 0.500000
vt 0.812500 0.375000
vt 0.812500 0.250000
vt 0.812500 0.125000
vt 0.750000 0.875000
vt 0.750000 0.750000
vt 0.750000 0.250000
s 0
f 113/150/1 5/5/1 6/6/1
f 114/151/2 11/11/2 4/4/2
f 2/2/3 9/9/3 3/3/3
f 113/150/4 7/7/4 1/1/4
f 112/149/5 62/77/5 5/5/5
f 61/61/6 4/4/6 11/11/6
f 114/151/7 9/9/7 10/10/7
f 1/1/8 8/8/8 2/2/8
f 8/8/9 16/16/9 9/9/9
f 7/7/10 13/13/10 14/14/10
f 5/5/11 62/78/11 12/12/11
f 61/62/12 11/11/12 18/18/12
f 9/9/13 17/17/13 10/10/13
f 8/8/14 14/14/14 15/15/14
f 5/5/15 13/13/15 6/6/15
f 11/11/16 17/17/16 18/18/16
f 61/63/17 18/18/17 25/25/17
f 16/16/18 24/24/18 17/17/18
f 15/15/19 21/21/19 22/22/19
f 12/12/20 20/20/20 13/13/20
f 18/18/21 24/24/21 25/25/21
f 15/15/22 23/23/22 16/16/22
f 13/13/23 21/21/23 14/14/23
f 12/12/24 62/79/24 19/19/24
f 22/22/25 28/28/25 29/29/25
f 19/19/26 27/27/26 20/20/26
f 24/24/27 32/32/27 25/25/27
f 22/22/28 30/30/28 23/23/28
f 20/20/29 28/28/29 21/21/29
f 19/19/30 62/80/30 26/26/30
f 61/64/31 25/25/31 32/32/31
f 23/23/32 31/31/32 24/24/32
f 31/31/33 39/39/33 32/32/33
f 29/29/34 37/37/34 30/30/34
f 27/27/35 35/35/35 28/28/35
f 26/26/36 62/81/36 33/33/36
f 61/65/37 32/32/37 39/39/37
f 31/31/38 37/37/38 38/38/38
f 29/29/39 35/35/39 36/36/39
f 26/26/40 34/34/40 27/27/40
f 34/34/41 42/42/41 35/35/41
f 33/33/42 62/82/42 40/40/42
f 61/66/43 39/39/43 46/46/43
f 38/38/44 44/44/44 45/45/44
f 36/36/45 42/42/45 43/43/45
f 34/34/46 40/40/46 41/41/46
f 38/38/47 46/46/47 39/39/47
f 36/36/48 44/44/48 37/37/48
f 61/67/49 46/46/49 53/53/49
f 45/45/50 51/51/50 52/52/50
f 43/43/51 49/49/51 50/50/51
f 40/40/52 48/48/52 41/41/52
f 45/45/53 53/53/53 46/46/53
f 43/43/54 51/51/54 44/44/54
f 41/41/55 49/49/55 42/42/55
f 40/40/56 62/83/56 47/47/56
f 47/47/57 55/55/57 48/48/57
f 53/53/58 59/59/58 60/60/58
f 50/50/59 58/58/59 51/51/59
f 48/48/60 56/56/60 49/49/60
f 47/47/61 62/84/61 54/54/61
f 61/68/62 53/53/62 60/60/62
f 52/52/63 58/58/63 59/59/63
f 50/50/64 56/56/64 57/57/64
f 59/59/65 69/99/65 60/60/65
f 57/57/66 67/97/66 58/58/66
f 55/55/67 65/95/67 56/56/67
f 54/54/68 62/85/68 63/93/68
f 61/69/69 60/60/69 69/99/69
f 59/59/70 67/97/70 68/98/70
f 57/57/71 65/95/71 66/96/71
f 55/55/72 63/93/72 64/94/72
f 63/93/73 62/86/73 70/100/73
f 61/70/74 69/99/74 76/106/74
f 68/98/75 74/104/75 75/105/75
f 66/96/76 72/102/76 73/103/76
f 64/94/77 70/100/77 71/101/77
f 68/98/78 76/106/78 69/99/78
f 66/96/79 74/104/79 67/97/79
f 64/94/80 72/102/80 65/95/80
f 75/105/81 81/111/81 82/112/81
f 73/103/82 79/109/82 80/110/82
f 70/100/83 78/108/83 71/101/83
f 75/105/84 83/113/84 76/106/84
f 73/103/85 81/111/85 74/104/85
f 71/101/86 79/109/86 72/102/86
f 70/100/87 62/87/87 77/107/87
f 61/71/88 76/106/88 83/113/88
f 83/113/89 89/124/89 90/126/89
f 80/110/90 88/122/90 81/111/90
f 78/108/91 86/118/91 79/109/91
f 77/107/92 62/88/92 84/114/92
f 61/72/93 83/113/93 90/126/93
f 82/112/94 88/122/94 89/124/94
f 80/110/95 86/118/95 87/120/95
f 77/107/96 85/116/96 78/108/96
f 87/121/97 95/132/97 88/123/97
f 85/117/98 93/130/98 86/119/98
f 84/115/99 62/89/99 91/128/99
f 61/73/100 90/127/100 97/134/100
f 89/125/101 95/132/101 96/133/101
f 87/121/102 93/130/102 94/131/102
f 84/115/103 92/129/103 85/117/103
f 89/125/104 97/134/104 90/127/104
f 61/74/105 97/134/105 104/141/105
f 96/133/106 102/139/106 103/140/106
f 94/131/107 100/137/107 101/138/107
f 91/128/108 99/136/108 92/129/108
f 96/133/109 104/141/109 97/134/109
f 94/131/110 102/139/110 95/132/110
f 92/129/111 100/137/111 93/130/111
f 91/128/112 62/90/112 98/135/112
f 101/138/113 107/144/113 108/145/113
f 98/135/114 106/143/114 99/136/114
f 104/141/115 110/147/115 111/148/115
f 101/138/116 109/146/116 102/139/116
f 99/136/117 107/144/117 100/137/117
f 98/135/118 62/91/118 105/142/118
f 61/75/119 104/141/119 111/148/119
f 103/140/120 109/146/120 110/147/120
f 110/147/121 4/4/121 111/148/121
f 108/145/122 3/3/122 109/146/122
f 106/143/123 1/1/123 107/144/123
f 105/142/124 62/92/124 112/149/124
f 61/76/125 111/148/125 4/4/125
f 110/147/126 3/3/126 114/151/126
f 108/145/127 1/1/127 2/2/127
f 105/142/128 113/150/128 106/143/128
f 113/150/1 112/149/1 5/5/1
f 114/151/2 10/10/2 11/11/2
f 2/2/3 8/8/3 9/9/3
f 113/150/4 6/6/4 7/7/4
f 114/151/7 3/3/7 9/9/7
f 1/1/8 7/7/8 8/8/8
f 8/8/9 15/15/9 16/16/9
f 7/7/10 6/6/10 13/13/10
f 9/9/13 16/16/13 17/17/13
f 8/8/14 7/7/14 14/14/14
f 5/5/15 12/12/15 13/13/15
f 11/11/16 10/10/16 17/17/16
f 16/16/18 23/23/18 24/24/18
f 15/15/19 14/14/19 21/21/19
f 12/12/20 19/19/20 20/20/20
f 18/18/21 17/17/21 24/24/21
f 15/15/22 22/22/22 23/23/22
f 13/13/23 20/20/23 21/21/23
f 22/22/25 21/21/25 28/28/25
f 19/19/26 26/26/26 27/27/26
f 24/24/27 31/31/27 32/32/27
f 22/22/28 29/29/28 30/30/28
f 20/20/29 27/27/29 28/28/29
f 23/23/32 30/30/32 31/31/32
f 31/31/33 38/38/33 39/39/33
f 29/29/34 36/36/34 37/37/34
f 27/27/35 34/34/35 35/35/35
f 31/31/38 30/30/38 37/37/38
f 29/29/39 28/28/39 35/35/39
f 26/26/40 33/33/40 34/34/40
f 34/34/41 41/41/41 42/42/41
f 38/38/44 37/37/44 44/44/44
f 36/36/45 35/35/45 42/42/45
f 34/34/46 33/33/46 40/40/46
f 38/38/47 45/45/47 46/46/47
f 36/36/48 43/43/48 44/44/48
f 45/45/50 44/44/50 51/51/50
f 43/43/51 42/42/51 49/49/51
f 40/40/52 47/47/52 48/48/52
f 45/45/53 52/52/53 53/53/53
f 43/43/54 50/50/54 51/51/54
f 41/41/55 48/48/55 49/49/55
f 47/47/57 54/54/57 55/55/57
f 53/53/58 52/52/58 59/59/58
f 50/50/59 57/57/59 58/58/59
f 48/48/60 55/55/60 56/56/60
f 52/52/63 51/51/63 58/58/63
f 50/50/64 49/49/64 56/56/64
f 59/59/65 68/98/65 69/99/65
f 57/57/66 66/96/66 67/97/66
f 55/55/67 64/94/67 65/95/67
f 59/59/70 58/58/70 67/97/70
f 57/57/71 56/56/71 65/95/71
f 55/55/72 54/54/72 63/93/72
f 68/98/75 67/97/75 74/104/75
f 66/96/76 65/95/76 72/102/76
f 64/94/77 63/93/77 70/100/77
f 68/98/78 75/105/78 76/106/78
f 66/96/79 73/103/79 74/104/79
f 64/94/80 71/101/80 72/102/80
f 75/105/81 74/104/81 81/111/81
f 73/103/82 72/102/82 79/109/82
f 70/100/83 77/107/83 78/108/83
f 75/105/84 82/112/84 83/113/84
f 73/103/85 80/110/85 81/111/85
f 71/101/86 78/108/86 79/109/86
f 83/113/89 82/112/89 89/124/89
f 80/110/90 87/120/90 88/122/90
f 78/108/91 85/116/91 86/118/91
f 82/112/94 81/111/94 88/122/94
f 80/110/95 79/109/95 86/118/95
f 77/107/96 84/114/96 85/116/96
f 87/121/97 94/131/97 95/132/97
f 85/117/98 92/129/98 93/130/98
f 89/125/101 88/123/101 95/132/101
f 87/121/102 86/119/102 93/130/102
f 84/115/103 91/128/103 92/129/103
f 89/125/104 96/133/104 97/134/104
f 96/133/106 95/132/106 102/139/106
f 94/131/107 93/130/107 100/137/107
f 91/128/108 98/135/108 99/136/108
f 96/133/109 103/140/109 104/141/109
f 94/131/110 101/138/110 102/139/110
f 92/129/111 99/136/111 100/137/111
f 101/138/113 100/137/113 107/144/113
f 98/135/114 105/142/114 106/143/114
f 104/141/115 103/140/115 110/147/115
f 101/138/116 108/145/116 109/146/116
f 99/136/117 106/143/117 107/144/117
f 103/140/120 102/139/120 109/146/120
f 110/147/121 114/151/121 4/4/121
f 108/145/122 2/2/122 3/3/122
f 106/143/123 113/150/123 1/1/123
f 110/147/126 109/146/126 3/3/126
f 108/145/127 107/144/127 1/1/127
f 105/142/128 112/149/128 113/150/128
