# Blender 3.3.0
# www.blender.org
o 立方体
v 1.000000 -1.000000 -1.000000
v 1.000000 1.000000 -1.000000
v 1.000000 -1.000000 1.000000
v 1.000000 1.000000 1.000000
v -1.000000 -1.000000 -1.000000
v -1.000000 1.000000 -1.000000
v -1.000000 -1.000000 1.000000
v -1.000000 1.000000 1.000000
v 1.000000 0.000000 -1.000000
v 1.000000 0.000000 1.000000
v -1.000000 0.000000 1.000000
v -1.000000 0.000000 -1.000000
v 1.000000 -1.000000 0.000000
v 1.000000 1.000000 0.000000
v -1.000000 -1.000000 0.000000
v -1.000000 1.000000 0.000000
v -1.503301 0.000000 0.000000
v 1.503301 0.000000 0.000000
v 0.000000 -1.000000 1.000000
v 0.000000 1.000000 1.000000
v 0.000000 -1.000000 -1.000000
v 0.000000 1.000000 -1.000000
v 0.000000 0.000000 -1.504220
v 0.000000 0.000000 1.504220
v 0.000000 1.530354 0.000000
v 0.000000 -1.530354 0.000000
vn 0.8932 0.4496 -0.0000
vn -0.0000 0.4502 0.8929
vn -0.8932 0.4496 -0.0000
vn -0.0000 0.4502 -0.8929
vn -0.4685 -0.8834 -0.0000
vn 0.4685 0.8834 -0.0000
vn 0.4502 -0.0000 -0.8929
vn -0.8932 -0.0000 -0.4496
vn -0.4502 -0.0000 0.8929
vn 0.8932 -0.0000 0.4496
vn 0.8932 -0.0000 -0.4496
vn -0.8932 -0.0000 0.4496
vn -0.0000 -0.8834 0.4685
vn -0.0000 0.8834 0.4685
vn 0.4502 -0.0000 0.8929
vn -0.4502 -0.0000 -0.8929
vn -0.0000 0.8834 -0.4685
vn -0.0000 -0.8834 -0.4685
vn -0.4685 0.8834 -0.0000
vn -0.0000 -0.4502 0.8929
vn 0.8932 -0.4496 -0.0000
vn -0.8932 -0.4496 -0.0000
vn -0.0000 -0.4502 -0.8929
vn 0.4685 -0.8834 -0.0000
s 0
f 18//1 14//1 4//1
f 24//2 20//2 8//2
f 17//3 16//3 6//3
f 23//4 22//4 2//4
f 26//5 15//5 5//5
f 25//6 14//6 2//6
f 23//7 9//7 1//7
f 17//8 12//8 5//8
f 24//9 11//9 7//9
f 18//10 10//10 3//10
f 1//11 9//11 18//11
f 7//12 11//12 17//12
f 4//6 14//6 25//6
f 7//5 15//5 26//5
f 8//3 16//3 17//3
f 2//1 14//1 18//1
f 3//13 19//13 26//13
f 8//14 20//14 25//14
f 3//15 10//15 24//15
f 5//16 12//16 23//16
f 25//17 22//17 6//17
f 26//18 21//18 1//18
f 6//4 22//4 23//4
f 4//2 20//2 24//2
f 20//14 4//14 25//14
f 16//19 8//19 25//19
f 16//19 25//19 6//19
f 22//17 25//17 2//17
f 10//15 4//15 24//15
f 19//20 3//20 24//20
f 19//20 24//20 7//20
f 11//9 24//9 8//9
f 10//10 18//10 4//10
f 9//11 2//11 18//11
f 13//21 1//21 18//21
f 13//21 18//21 3//21
f 11//12 8//12 17//12
f 15//22 7//22 17//22
f 15//22 17//22 5//22
f 12//8 17//8 6//8
f 12//16 6//16 23//16
f 21//23 5//23 23//23
f 21//23 23//23 1//23
f 9//7 23//7 2//7
f 13//24 26//24 1//24
f 13//24 3//24 26//24
f 19//13 7//13 26//13
f 21//18 26//18 5//18
