# Blender 3.3.0
# www.blender.org
o å¹³é¢.001
v -24.225889 -1.217879 -18.907518
v -26.736416 -1.253593 25.520283
v 24.249271 -1.217877 -18.959793
v 24.249273 -1.217877 27.036116
v 15.107093 3.177989 -11.542505
v 18.669268 4.087783 1.381169
v 3.506213 3.787461 0.026972
v 21.600342 2.942644 -6.596412
v -4.371031 3.555629 8.668902
v 13.384485 3.822873 9.626943
v 1.607802 2.237083 19.053823
v -14.776180 2.853314 3.780823
v -7.546179 3.575047 1.834932
v 2.921208 2.833434 -14.493441
v -8.644516 2.517023 -10.450252
v -16.919437 1.719161 -8.710840
v -22.075298 0.969965 -7.269205
vn -0.0000 -1.0000 -0.0008
vn -0.0162 0.9996 0.0217
vn -0.0007 0.7390 -0.6738
vn 0.1124 0.9886 -0.1006
vn -0.2845 0.9584 0.0246
vn 0.8435 0.5371 -0.0000
vn -0.1223 0.9853 0.1188
vn -0.1069 0.9673 -0.2302
vn -0.0138 0.9977 -0.0664
vn 0.5127 0.8560 0.0655
vn 0.2353 0.9353 -0.2643
vn 0.0627 0.9684 0.2413
vn -0.0205 0.9998 0.0081
vn -0.0817 0.9818 0.1717
vn 0.1969 0.9677 0.1573
vn -0.0134 0.9032 0.4289
vn -0.0224 0.9901 0.1386
vn -0.1177 0.9906 -0.0698
vn -0.0876 0.9952 0.0435
vn -0.1328 0.9737 -0.1853
vn -0.0174 0.9998 0.0109
vn 0.0797 0.8975 -0.4337
vn -0.0125 0.9978 -0.0651
vn -0.0495 0.9968 -0.0635
vn -0.0327 0.9960 -0.0829
vn -0.1114 0.9909 -0.0754
vn -0.1605 0.9851 -0.0619
vn -0.1828 0.9718 -0.1489
vn -0.6159 0.7871 -0.0342
vn 0.0007 -1.0000 -0.0000
s 0
f 3//1 2//1 1//1
f 6//2 9//2 10//2
f 3//3 1//3 14//3
f 5//4 6//4 8//4
f 2//5 12//5 17//5
f 4//6 3//6 8//6
f 12//7 2//7 9//7
f 14//8 1//8 15//8
f 5//9 7//9 6//9
f 6//10 4//10 8//10
f 3//11 5//11 8//11
f 4//12 10//12 11//12
f 6//13 7//13 9//13
f 9//14 2//14 11//14
f 4//15 6//15 10//15
f 2//16 4//16 11//16
f 10//17 9//17 11//17
f 12//18 13//18 16//18
f 13//19 12//19 9//19
f 15//20 1//20 16//20
f 7//21 13//21 9//21
f 5//22 3//22 14//22
f 5//23 14//23 7//23
f 7//24 14//24 15//24
f 7//25 15//25 13//25
f 13//26 15//26 16//26
f 17//27 12//27 16//27
f 1//28 17//28 16//28
f 1//29 2//29 17//29
f 3//30 4//30 2//30
